<svg xmlns="http://www.w3.org/2000/svg" xml:space="preserve" style="fill-rule:evenodd;clip-rule:evenodd;stroke-linecap:round;stroke-linejoin:round;stroke-miterlimit:1.5" viewBox="0 0 447 130">
  <path d="M0 0h446.414v129.996H0z" style="fill:none"/>
  <path d="M16.043 116.979c18.739-15.321 35.744-34.383 41.539-77.622l25.874-25.874 273.597-2 25.874 25.874c5.36 28.574 16.411 59.749 49.03 81.622" style="fill:#ccc"/>
  <clipPath id="a">
    <path d="M16.043 116.979c18.739-15.321 35.744-34.383 41.539-77.622l25.874-25.874 273.597-2 25.874 25.874c5.36 28.574 16.411 59.749 49.03 81.622"/>
  </clipPath>
  <g clip-path="url(#a)">
    <path d="m64.228 30.962-8.473 23.136 277 8.136L350 86.491l2.228 34.239 70.463-1.752-13.463-40.16-30-70.752-295 3.416z" style="fill:#ebebeb"/>
    <path d="m64.228 30.962-8.473 23.136 277 8.136L350 86.491l2.228 34.239 70.463-1.752-13.463-40.16-30-70.752-295 3.416z" style="fill:#ebebeb"/>
  </g>
  <path d="M16.043 116.979c18.739-15.321 35.744-34.383 41.539-77.622l25.874-25.874 273.597-2 25.874 25.874c5.36 28.574 16.411 59.749 49.03 81.622" style="fill:none;stroke:#989898;stroke-width:12.5px"/>
  <path d="M341.105 38.031v16.136l-8.068 8.068H106.474l-8.068-8.068V38.031l8.068-8.068h226.563z" style="fill:#b1b1b1;stroke:#989898;stroke-width:12.87px"/>
</svg>
