<svg xmlns="http://www.w3.org/2000/svg" xml:space="preserve" style="fill-rule:evenodd;clip-rule:evenodd;stroke-linecap:round;stroke-linejoin:round;stroke-miterlimit:1.5" viewBox="0 0 291 65">
  <path d="M0 0h290.106v64.828H0z" style="fill:none"/>
  <path d="M108.046 9.839c1.707-.946 6.231-1.479 11.287-1.329s9.541.951 11.188 1.997l23.201 12.289 47.058-2.02c4.785-.205 10.079.272 13.207 1.192s3.407 2.08.697 2.895l-36.652 7.018L279.929 48.67c4.26.69 6.337 1.819 5.182 2.815-1.156.996-5.292 1.643-10.319 1.614l-109.436-10.29 5.186 10.486c.527 1.066-2.177 1.996-6.745 2.319-4.569.323-10.006-.031-13.565-.883l-34.994-8.38-33.429 8.287c-3.602.639-9.052.67-13.593.076s-7.186-1.682-6.596-2.715l3.8-12.16-49.366-2.646c-5.02-.269-9.11-1.16-10.205-2.223-1.094-1.063 1.046-2.066 5.34-2.502l42.226-4.289-16.129-9.587c-2.657-.975-2.309-2.117.868-2.849s8.49-.894 13.254-.405l39.855 8.811 16.784-14.308Z" style="fill:#797979;stroke:#575757;stroke-width:8.33px"/>
</svg>
