<svg xmlns="http://www.w3.org/2000/svg" xml:space="preserve" style="fill-rule:evenodd;clip-rule:evenodd;stroke-linecap:round;stroke-linejoin:round;stroke-miterlimit:1.5" viewBox="0 0 213 58">
  <path d="M0 0h212.888v57.076H0z" style="fill:none"/>
  <path d="M128.34 9.835c.774-.498 2.996-.835 5.503-.835s4.729.337 5.503.835l15.65 12.57 43.337.997c2.507 0 4.729.337 5.504.835s-.074 1.044-2.103 1.351l-28.338 13.019 11.674 9.552c.775.498-.073 1.044-2.102 1.351-2.028.308-4.775.308-6.803 0l-49.323-9.007-49.323 9.007c-2.028.308-4.774.308-6.803 0s-2.877-.853-2.102-1.351L81.288 33.59 11.95 24.588c-2.028-.308-2.877-.853-2.103-1.351.775-.498 2.997-.835 5.504-.835l83.337.003 29.65-12.57Z" style="fill:#797979;stroke:#575757;stroke-width:8.33px"/>
</svg>
