<svg xmlns="http://www.w3.org/2000/svg" xml:space="preserve" style="fill-rule:evenodd;clip-rule:evenodd;stroke-linecap:round;stroke-linejoin:round;stroke-miterlimit:1.5" viewBox="0 0 600 347">
  <path d="M0 0h600v347H0z" style="fill:none"/>
  <path d="M387.271 86.578v94.672L365.521 203h-43.5l-21.75-21.75V86.578l21.75-21.75h43.5z" style="fill:#d1d1d1;stroke:#afafaf;stroke-width:12.5px"/>
  <path d="M351 88.578v90.672L327.25 203h-47.5L256 179.25V88.578l23.75-23.75h47.5z" style="fill:#e4e4e4;stroke:#afafaf;stroke-width:12.5px"/>
  <path d="m500.206 172.905 10.882-13.06-60.84-45.161-5.441 6.53z" style="fill:#afafaf"/>
  <path d="M456.043 88.273a6.854 6.854 0 0 1 2.272 9.418l-22.94 37.525a6.854 6.854 0 0 1-9.418 2.272 6.854 6.854 0 0 1-2.272-9.418l22.94-37.525a6.854 6.854 0 0 1 9.418-2.272" style="fill:#e4e4e4;stroke:#afafaf;stroke-width:8.33px"/>
  <path d="M551 183.8V251H69v-86.4l9.6-9.6h443.6z" style="fill:#e4e4e4"/>
  <clipPath id="a">
    <path d="M551 183.8V251H69v-86.4l9.6-9.6h443.6z"/>
  </clipPath>
  <g clip-path="url(#a)">
    <path d="M257.5 191.207v23.586l-11.793 11.793h-37.414L196.5 214.793v-23.586l11.793-11.793h37.414zM344.564 191.207v23.586l-11.793 11.793h-37.414l-11.793-11.793v-23.586l11.793-11.793h37.414z" style="fill:#d1d1d1;stroke:#afafaf;stroke-width:12.5px"/>
  </g>
  <path d="M551 183.8V251H69v-86.4l9.6-9.6h443.6z" style="fill:none;stroke:#afafaf;stroke-width:12.5px"/>
  <path d="M148 155h-17l4.25-106.172h8.5zM149.053 19.307l-5.86 20.682-3.175-.9 5.86-20.682z" style="fill:#afafaf"/>
  <circle cx="148.286" cy="16.407" r="3.75" style="fill:#d1d1d1"/>
  <path d="m91.474 19.088 107.052 28.685-31.955 12.205-53.526-14.342z" style="fill:#d1d1d1"/>
  <circle cx="100" cy="277" r="20.702" style="fill:#e4e4e4;stroke:#afafaf;stroke-width:12.5px"/>
  <path d="M100 219c32.011 0 58 25.989 58 58s-25.989 58-58 58-58-25.989-58-58 25.989-58 58-58m0 37.298c11.426 0 20.702 9.276 20.702 20.702s-9.276 20.702-20.702 20.702S79.298 288.426 79.298 277s9.276-20.702 20.702-20.702" style="fill:#d1d1d1;stroke:#afafaf;stroke-width:12.5px"/>
  <circle cx="507.399" cy="277" r="20.702" style="fill:#e4e4e4;stroke:#afafaf;stroke-width:12.5px"/>
  <path d="M507.399 219c32.011 0 58 25.989 58 58s-25.989 58-58 58-58-25.989-58-58 25.989-58 58-58m0 37.298c11.426 0 20.702 9.276 20.702 20.702s-9.276 20.702-20.702 20.702-20.702-9.276-20.702-20.702 9.276-20.702 20.702-20.702" style="fill:#d1d1d1;stroke:#afafaf;stroke-width:12.5px"/>
  <path d="m180.984 279.941-21.763-.428q.012-.582.011-1.165c0-32.691-26.541-59.233-59.233-59.233-32.713 0-59.233 26.519-59.233 59.233H18.999c0-44.735 36.265-81 81-81 44.705 0 81 36.295 81 81q0 .797-.016 1.593ZM588.383 279.941l-21.763-.428q.012-.582.011-1.165c0-32.691-26.541-59.233-59.233-59.233-32.713 0-59.233 26.519-59.233 59.233h-21.767c0-44.735 36.265-81 81-81 44.705 0 81 36.295 81 81q0 .797-.016 1.593Z" style="fill:#e8a24d;stroke:#bb8334;stroke-width:12.5px"/>
</svg>
